<?xml version="1.0" encoding="UTF-8" ?>
<!DOCTYPE svg PUBLIC "-//W3C//DTD SVG 1.1//EN" "http://www.w3.org/Graphics/SVG/1.1/DTD/svg11.dtd">
<svg width="1000pt" height="1000pt" viewBox="0 0 1000 1000" version="1.1" xmlns="http://www.w3.org/2000/svg">
<path fill="#20304a" stroke="#20304a" stroke-width="0.09375" opacity="1.00" d=" M 896.61 27.85 C 907.77 24.62 919.29 21.90 930.99 22.23 C 956.61 20.12 980.93 44.35 978.83 69.99 C 979.12 91.47 972.07 112.53 961.73 131.16 C 954.15 144.99 943.99 157.11 934.48 169.61 C 915.10 193.68 895.37 217.58 873.03 239.00 C 868.34 243.32 863.90 247.90 859.25 252.27 C 852.87 257.55 847.45 263.87 841.16 269.25 C 837.31 272.69 833.58 276.27 830.00 279.99 C 824.62 285.47 818.14 290.00 813.40 296.02 C 815.16 305.74 817.81 315.30 819.79 324.98 C 825.95 349.97 831.41 375.13 838.14 399.97 C 839.18 405.75 841.04 411.35 842.50 417.03 C 844.57 413.04 848.01 410.06 850.74 406.55 C 853.79 402.90 857.73 398.86 862.96 399.52 C 867.08 399.30 870.41 402.13 872.99 405.01 C 881.58 413.76 890.36 422.30 899.30 430.70 C 904.31 434.83 905.47 443.03 901.02 447.98 C 887.96 460.18 874.32 471.90 859.20 481.52 C 862.66 495.39 866.75 509.10 870.28 522.95 C 872.08 530.10 874.54 537.08 875.85 544.34 C 876.01 544.39 876.33 544.49 876.50 544.54 C 876.55 545.13 876.65 546.31 876.71 546.90 C 887.56 584.89 897.95 623.03 909.17 660.92 C 916.74 687.37 924.68 713.71 932.53 740.07 C 935.03 748.50 937.94 757.08 937.57 766.00 C 937.98 775.56 934.63 785.11 928.69 792.56 C 923.12 799.61 917.34 806.59 910.43 812.38 C 908.04 812.31 905.29 812.65 903.62 810.54 C 899.97 806.18 897.63 800.89 894.56 796.12 C 857.65 734.42 820.51 672.85 782.14 612.05 C 744.38 552.04 705.93 492.38 663.97 435.18 C 651.22 446.71 637.76 457.42 624.85 468.76 C 585.70 501.42 546.49 534.07 505.47 564.37 C 508.17 580.26 510.28 596.26 512.50 612.23 C 514.65 629.77 517.11 647.31 518.09 664.97 C 518.68 673.93 519.89 683.44 516.12 691.91 C 509.91 706.92 498.79 719.09 487.91 730.87 C 483.43 735.03 478.93 739.21 474.06 742.92 C 467.28 729.39 460.48 715.88 453.91 702.25 C 447.00 687.91 439.72 673.75 432.98 659.33 C 430.39 653.97 427.82 648.60 425.28 643.22 C 421.95 636.23 418.65 629.23 415.36 622.23 C 405.52 626.45 394.91 631.32 383.94 629.31 C 378.65 628.38 375.51 623.04 375.54 617.96 C 375.24 607.41 379.57 597.43 383.80 587.99 C 377.88 585.71 372.19 582.88 366.46 580.19 C 350.08 572.51 333.84 564.54 317.53 556.73 C 297.68 546.92 277.59 537.57 258.03 527.21 C 264.54 520.62 270.22 513.19 277.50 507.37 C 278.78 506.21 280.02 505.01 281.30 503.86 C 283.03 502.35 284.84 500.96 286.64 499.56 C 294.36 493.55 302.59 487.96 311.86 484.66 C 317.65 482.46 323.95 483.54 329.99 483.27 C 347.31 484.00 364.53 486.23 381.76 488.16 C 391.18 489.56 400.63 490.73 410.07 492.04 C 413.26 492.60 416.48 493.00 419.69 493.49 C 427.14 494.50 434.55 495.90 442.04 496.63 C 447.86 489.53 452.86 481.82 458.68 474.72 C 475.06 453.29 491.77 432.11 508.90 411.28 C 512.26 407.57 514.96 403.33 518.24 399.56 C 521.04 396.70 523.41 393.48 525.95 390.41 C 526.28 390.12 526.95 389.55 527.28 389.26 C 534.71 378.93 543.58 369.74 551.51 359.81 C 555.90 354.75 559.93 349.37 564.49 344.45 C 565.95 342.87 567.16 341.08 568.33 339.27 C 563.36 336.04 558.78 332.27 553.87 328.97 C 546.11 323.00 537.99 317.50 529.96 311.90 C 524.73 308.06 519.29 304.52 513.97 300.82 C 510.75 298.71 507.59 296.53 504.43 294.36 L 502.97 293.38 C 501.19 292.20 499.43 290.98 497.65 289.83 C 494.93 288.01 492.23 286.18 489.51 284.37 C 488.18 283.48 486.86 282.58 485.54 281.70 C 484.65 281.10 483.74 280.51 482.86 279.93 C 482.35 279.61 481.32 278.95 480.81 278.62 C 477.92 276.69 475.00 274.80 472.05 272.97 C 470.78 272.06 469.04 271.23 469.16 269.36 C 467.83 269.04 466.51 268.73 465.19 268.41 C 464.10 266.42 462.07 265.54 460.02 264.91 C 458.67 264.17 457.39 263.32 456.12 262.48 C 447.05 256.52 437.90 250.66 428.68 244.94 C 385.66 217.14 341.93 190.46 298.22 163.77 C 263.32 142.59 228.30 121.61 193.17 100.80 C 188.55 98.78 187.62 91.72 191.47 88.56 C 195.90 84.20 200.62 80.15 205.47 76.27 C 211.88 70.77 219.54 66.34 228.07 65.37 C 236.63 64.45 245.44 65.06 253.67 67.69 C 292.78 79.36 331.90 90.95 371.18 102.02 C 420.66 116.28 470.29 130.03 520.11 143.05 C 528.52 130.63 537.75 118.75 547.90 107.71 C 551.12 104.23 554.09 100.18 558.79 98.63 C 562.81 98.30 567.08 98.98 569.99 102.04 C 576.77 108.92 583.82 115.57 590.19 122.85 C 593.72 126.67 597.76 130.04 600.91 134.21 C 603.78 138.75 602.43 144.97 598.54 148.49 C 594.19 152.63 589.59 156.51 584.93 160.30 C 593.10 161.53 601.00 164.17 609.04 166.09 C 632.36 171.75 655.68 177.44 679.06 182.87 C 688.26 184.77 697.34 187.42 706.66 188.70 C 712.41 181.81 719.43 176.09 725.15 169.16 C 730.29 163.31 736.20 158.20 741.34 152.34 C 748.98 143.56 757.71 135.81 765.34 127.01 C 771.17 120.27 778.43 115.02 784.52 108.54 C 791.89 101.92 799.38 95.42 806.65 88.68 C 818.76 78.37 831.03 68.28 843.57 58.50 C 859.39 45.43 877.15 34.58 896.61 27.85 Z" />
<path fill="#00bff3" stroke="#00bff3" stroke-width="0.09375" opacity="1.00" d=" M 288.24 291.02 C 330.61 265.02 379.17 249.27 428.68 244.94 C 437.90 250.66 447.05 256.52 456.12 262.48 C 455.87 263.02 455.36 264.09 455.11 264.63 C 456.74 264.71 458.38 264.79 460.02 264.91 C 462.07 265.54 464.10 266.42 465.19 268.41 C 466.51 268.73 467.83 269.04 469.16 269.36 C 469.04 271.23 470.78 272.06 472.05 272.97 C 475.00 274.80 477.92 276.69 480.81 278.62 C 477.15 278.14 473.36 278.30 469.94 279.78 C 470.19 280.33 470.68 281.43 470.93 281.97 C 469.90 282.51 468.88 283.04 467.87 283.58 C 466.86 282.85 465.86 282.11 464.87 281.38 C 463.81 281.95 462.78 282.55 461.76 283.17 C 463.96 284.81 466.37 286.35 467.51 288.99 C 470.64 288.35 473.85 287.91 476.85 286.75 C 479.79 285.51 481.52 282.68 482.86 279.93 C 483.74 280.51 484.65 281.10 485.54 281.70 C 483.97 284.56 481.94 287.40 478.57 288.20 C 475.24 288.98 472.69 291.20 470.51 293.72 C 470.50 294.31 470.49 295.48 470.49 296.07 C 469.64 296.20 467.94 296.46 467.09 296.58 C 466.13 296.11 465.16 295.69 464.17 295.33 C 461.33 296.55 458.58 297.95 455.62 298.86 C 459.67 301.12 464.37 301.97 468.70 299.91 C 468.30 299.30 467.49 298.09 467.09 297.48 C 470.24 295.98 473.65 296.26 476.92 297.17 C 474.81 297.67 472.83 298.52 470.92 299.52 C 471.55 299.76 472.80 300.24 473.43 300.49 C 469.86 302.87 464.24 302.01 462.48 306.58 C 461.86 306.50 460.61 306.32 459.98 306.24 C 461.28 304.94 462.59 303.65 463.89 302.35 C 460.75 300.96 456.98 300.70 454.47 303.52 C 455.34 303.51 457.06 303.48 457.92 303.46 C 457.92 303.77 457.92 304.39 457.92 304.69 C 450.23 303.44 442.02 305.71 434.80 302.03 C 434.52 301.03 434.29 300.03 434.11 299.02 C 430.15 299.93 425.67 299.72 422.36 302.38 C 424.65 302.41 426.96 302.37 429.26 302.29 C 425.94 302.74 421.58 303.01 421.15 307.24 C 420.22 307.94 419.25 308.59 418.32 309.30 C 418.05 308.71 417.79 308.12 417.53 307.54 C 418.34 307.52 419.96 307.46 420.77 307.43 C 419.14 305.92 417.63 303.22 415.05 303.55 C 409.67 304.20 404.06 305.56 398.80 303.52 C 401.28 302.75 403.77 302.02 406.21 301.14 C 403.20 298.05 398.77 300.07 395.15 298.75 C 390.54 297.61 385.97 293.85 381.10 296.12 C 380.63 296.25 379.68 296.50 379.20 296.62 C 378.86 295.92 378.18 294.51 377.84 293.81 C 376.90 294.27 376.00 294.79 375.10 295.31 C 373.69 296.13 372.27 296.92 370.86 297.74 C 370.77 295.96 371.58 293.99 370.79 292.31 C 368.54 293.21 366.43 294.40 364.25 295.43 C 360.09 292.78 355.38 295.45 351.02 296.02 C 345.90 297.28 339.81 295.45 335.70 299.65 C 332.83 299.64 330.07 298.84 328.11 296.66 C 323.56 296.61 319.49 293.91 314.93 294.30 C 307.69 294.73 300.74 291.53 293.48 292.68 C 293.15 292.12 292.49 291.01 292.16 290.46 C 290.84 290.62 289.54 290.81 288.24 291.02 M 436.57 264.99 C 431.63 265.96 426.86 267.71 421.85 268.35 C 420.09 268.50 418.48 269.16 417.07 270.18 C 420.77 270.06 424.70 271.24 428.21 269.66 C 430.69 269.11 433.09 268.25 435.40 267.21 L 435.27 269.00 C 438.74 268.40 442.08 267.32 445.11 265.49 C 446.34 267.19 448.04 267.87 449.95 266.84 C 449.28 266.57 447.94 266.02 447.27 265.74 C 447.03 265.36 446.54 264.59 446.30 264.21 C 443.07 264.59 439.81 264.68 436.57 264.99 M 457.27 268.46 C 456.99 269.58 456.72 270.71 456.46 271.85 C 454.40 271.80 452.34 271.76 450.28 271.74 C 450.06 271.22 449.63 270.18 449.41 269.66 C 445.82 268.43 441.57 266.67 438.51 269.99 C 435.41 269.24 432.76 272.80 429.45 271.63 C 429.45 272.11 429.44 273.05 429.44 273.53 C 432.34 273.66 435.31 274.08 438.16 273.30 C 441.05 272.32 444.06 273.27 446.98 273.59 C 444.95 273.64 442.91 273.59 440.89 273.59 C 439.20 274.74 437.06 274.64 435.14 275.00 L 435.88 276.03 C 442.58 277.79 449.18 273.13 456.00 274.16 C 460.48 274.98 464.71 273.10 468.63 271.19 C 468.02 270.62 467.39 270.06 466.76 269.52 C 465.24 270.13 463.66 270.48 462.05 270.68 C 462.41 270.04 463.15 268.76 463.51 268.12 C 462.96 267.59 462.41 267.09 461.86 266.59 C 460.40 267.39 458.84 267.95 457.27 268.46 M 468.34 272.15 C 468.05 272.43 467.45 272.97 467.16 273.25 C 468.39 276.34 472.56 271.18 468.34 272.15 M 401.85 276.63 C 401.39 277.55 400.93 278.48 400.48 279.41 C 394.99 280.76 390.40 284.24 385.17 286.26 C 386.37 286.54 387.58 286.84 388.79 287.14 C 388.80 287.92 388.83 289.48 388.85 290.26 C 392.25 289.34 395.75 288.83 399.21 288.17 C 407.54 283.50 417.07 281.85 426.35 280.16 C 425.79 279.25 425.17 278.38 424.50 277.55 C 422.00 275.74 418.83 278.20 416.16 276.83 C 411.57 274.89 406.60 276.33 401.85 276.63 M 453.00 279.16 C 453.27 280.11 453.56 281.05 453.85 282.00 C 452.09 281.47 450.36 280.64 448.51 280.63 C 444.47 281.65 444.02 287.03 439.99 288.04 C 440.53 286.50 441.31 285.07 442.17 283.68 C 441.15 282.85 440.00 282.24 438.73 281.94 C 438.08 284.43 435.18 284.11 433.22 284.81 C 433.64 284.32 434.47 283.34 434.89 282.85 C 431.15 281.26 427.63 283.29 423.97 283.87 C 425.71 282.97 428.11 282.73 428.96 280.67 C 423.72 280.91 418.55 281.92 413.51 283.33 C 410.73 284.53 408.07 286.01 405.26 287.16 C 407.85 289.81 411.65 288.30 414.89 288.42 C 411.09 290.07 405.87 288.20 402.98 291.52 C 408.86 293.05 414.91 291.08 420.82 292.41 C 421.08 292.69 421.59 293.24 421.85 293.52 C 414.94 293.43 407.99 292.97 401.19 294.53 C 401.21 299.03 406.75 297.55 409.68 298.02 C 409.18 299.13 408.67 300.24 408.16 301.34 C 416.84 301.09 425.60 300.28 433.84 297.41 C 438.34 299.97 443.68 300.15 448.64 298.97 C 448.67 298.17 448.73 296.58 448.76 295.78 C 450.14 294.77 451.58 295.96 452.89 296.43 C 453.80 295.89 454.70 295.34 455.61 294.80 C 453.47 293.13 450.90 292.20 448.49 291.01 C 450.50 288.40 452.18 285.58 453.81 282.72 C 456.09 281.86 458.76 281.33 460.25 279.22 C 457.86 278.59 455.39 278.72 453.00 279.16 M 459.03 291.37 C 457.44 294.33 462.36 291.57 459.03 291.37 M 452.23 299.18 C 452.77 299.69 452.77 299.69 452.23 299.18 Z" />
<path fill="#94e27c" stroke="#94e27c" stroke-width="0.09375" opacity="1.00" d=" M 455.11 264.63 C 455.36 264.09 455.87 263.02 456.12 262.48 C 457.39 263.32 458.67 264.17 460.02 264.91 C 458.38 264.79 456.74 264.71 455.11 264.63 Z" />
<path fill="#95e27c" stroke="#95e27c" stroke-width="0.09375" opacity="1.00" d=" M 436.57 264.99 C 439.81 264.68 443.07 264.59 446.30 264.21 C 446.54 264.59 447.03 265.36 447.27 265.74 C 447.94 266.02 449.28 266.57 449.95 266.84 C 448.04 267.87 446.34 267.19 445.11 265.49 C 442.08 267.32 438.74 268.40 435.27 269.00 L 435.40 267.21 C 433.09 268.25 430.69 269.11 428.21 269.66 C 424.70 271.24 420.77 270.06 417.07 270.18 C 418.48 269.16 420.09 268.50 421.85 268.35 C 426.86 267.71 431.63 265.96 436.57 264.99 Z" />
<path fill="#9ae373" stroke="#9ae373" stroke-width="0.09375" opacity="1.00" d=" M 457.27 268.46 C 458.84 267.95 460.40 267.39 461.86 266.59 C 462.41 267.09 462.96 267.59 463.51 268.12 C 463.15 268.76 462.41 270.04 462.05 270.68 C 463.66 270.48 465.24 270.13 466.76 269.52 C 467.39 270.06 468.02 270.62 468.63 271.19 C 464.71 273.10 460.48 274.98 456.00 274.16 C 449.18 273.13 442.58 277.79 435.88 276.03 L 435.14 275.00 C 437.06 274.64 439.20 274.74 440.89 273.59 C 442.91 273.59 444.95 273.64 446.98 273.59 C 444.06 273.27 441.05 272.32 438.16 273.30 C 435.31 274.08 432.34 273.66 429.44 273.53 C 429.44 273.05 429.45 272.11 429.45 271.63 C 432.76 272.80 435.41 269.24 438.51 269.99 C 441.57 266.67 445.82 268.43 449.41 269.66 C 449.63 270.18 450.06 271.22 450.28 271.74 C 452.34 271.76 454.40 271.80 456.46 271.85 C 456.72 270.71 456.99 269.58 457.27 268.46 Z" />
<path fill="#64d59f" stroke="#64d59f" stroke-width="0.09375" opacity="1.00" d=" M 468.34 272.15 C 472.56 271.18 468.39 276.34 467.16 273.25 C 467.45 272.97 468.05 272.43 468.34 272.15 Z" />
<path fill="#9ae373" stroke="#9ae373" stroke-width="0.09375" opacity="1.00" d=" M 401.85 276.63 C 406.60 276.33 411.57 274.89 416.16 276.83 C 418.83 278.20 422.00 275.74 424.50 277.55 C 425.17 278.38 425.79 279.25 426.35 280.16 C 417.07 281.85 407.54 283.50 399.21 288.17 C 395.75 288.83 392.25 289.34 388.85 290.26 C 388.83 289.48 388.80 287.92 388.79 287.14 C 387.58 286.84 386.37 286.54 385.17 286.26 C 390.40 284.24 394.99 280.76 400.48 279.41 C 400.93 278.48 401.39 277.55 401.85 276.63 Z" />
<path fill="#9ae373" stroke="#9ae373" stroke-width="0.09375" opacity="1.00" d=" M 453.00 279.16 C 455.39 278.72 457.86 278.59 460.25 279.22 C 458.76 281.33 456.09 281.86 453.81 282.72 C 452.18 285.58 450.50 288.40 448.49 291.01 C 450.90 292.20 453.47 293.13 455.61 294.80 C 454.70 295.34 453.80 295.89 452.89 296.43 C 451.58 295.96 450.14 294.77 448.76 295.78 C 448.73 296.58 448.67 298.17 448.64 298.97 C 443.68 300.15 438.34 299.97 433.84 297.41 C 425.60 300.28 416.84 301.09 408.16 301.34 C 408.67 300.24 409.18 299.13 409.68 298.02 C 406.75 297.55 401.21 299.03 401.19 294.53 C 407.99 292.97 414.94 293.43 421.85 293.52 C 421.59 293.24 421.08 292.69 420.82 292.41 C 414.91 291.08 408.86 293.05 402.98 291.52 C 405.87 288.20 411.09 290.07 414.89 288.42 C 411.65 288.30 407.85 289.81 405.26 287.16 C 408.07 286.01 410.73 284.53 413.51 283.33 C 418.55 281.92 423.72 280.91 428.96 280.67 C 428.11 282.73 425.71 282.97 423.97 283.87 C 427.63 283.29 431.15 281.26 434.89 282.85 C 434.47 283.34 433.64 284.32 433.22 284.81 C 435.18 284.11 438.08 284.43 438.73 281.94 C 440.00 282.24 441.15 282.85 442.17 283.68 C 441.31 285.07 440.53 286.50 439.99 288.04 C 444.02 287.03 444.47 281.65 448.51 280.63 C 450.36 280.64 452.09 281.47 453.85 282.00 C 453.56 281.05 453.27 280.11 453.00 279.16 Z" />
<path fill="#9ae373" stroke="#9ae373" stroke-width="0.09375" opacity="1.00" d=" M 469.94 279.78 C 473.36 278.30 477.15 278.14 480.81 278.62 C 481.32 278.95 482.35 279.61 482.86 279.93 C 481.52 282.68 479.79 285.51 476.85 286.75 C 473.85 287.91 470.64 288.35 467.51 288.99 C 466.37 286.35 463.96 284.81 461.76 283.17 C 462.78 282.55 463.81 281.95 464.87 281.38 C 465.86 282.11 466.86 282.85 467.87 283.58 C 468.88 283.04 469.90 282.51 470.93 281.97 C 470.68 281.43 470.19 280.33 469.94 279.78 Z" />
<path fill="#9ae373" stroke="#9ae373" stroke-width="0.09375" opacity="1.00" d=" M 478.57 288.20 C 481.94 287.40 483.97 284.56 485.54 281.70 C 486.86 282.58 488.18 283.48 489.51 284.37 C 488.05 285.03 486.59 285.69 485.13 286.35 C 485.47 287.17 485.81 288.00 486.16 288.83 C 485.96 290.50 485.75 292.17 485.52 293.84 C 484.20 294.49 482.86 295.13 481.54 295.79 C 483.50 296.16 485.46 296.50 487.42 296.89 C 486.88 297.23 485.80 297.91 485.26 298.25 C 484.58 299.62 483.91 301.00 483.24 302.37 C 485.52 300.83 487.65 299.05 490.11 297.79 C 491.44 297.44 492.41 298.89 492.82 299.97 C 492.18 301.97 489.50 302.11 488.57 303.86 C 488.69 304.68 488.93 306.33 489.05 307.15 C 490.93 306.35 493.01 305.58 493.78 303.49 C 494.19 301.97 495.87 302.76 496.99 302.65 C 498.98 301.40 501.07 300.28 502.97 298.89 C 503.86 297.55 504.07 295.89 504.43 294.36 C 507.59 296.53 510.75 298.71 513.97 300.82 C 512.50 301.08 511.03 301.35 509.57 301.62 C 509.88 303.16 510.19 304.71 510.51 306.26 C 506.98 307.95 503.39 309.53 499.70 310.83 C 499.48 310.49 499.05 309.81 498.84 309.48 C 498.38 308.69 497.97 307.89 497.56 307.09 C 497.42 307.80 497.14 309.21 497.00 309.92 C 496.41 310.19 495.22 310.74 494.63 311.01 C 492.81 310.51 491.00 310.03 489.18 309.56 C 489.31 310.13 489.56 311.26 489.69 311.83 C 486.85 313.07 483.78 314.22 481.91 316.84 C 478.07 319.29 473.98 321.83 469.23 321.40 C 464.75 324.35 459.60 321.61 454.84 321.11 C 458.17 321.83 461.82 322.24 464.22 324.97 C 452.30 328.13 440.24 334.36 433.53 345.10 C 435.23 345.22 436.95 345.35 438.66 345.47 C 437.80 348.22 436.97 350.98 436.12 353.73 C 440.61 352.08 446.26 352.60 449.63 356.28 C 451.89 358.87 455.16 360.20 458.20 361.66 C 461.29 362.49 464.56 362.28 467.73 362.65 C 465.50 365.96 463.87 369.60 462.16 373.19 C 462.33 374.54 462.51 375.89 462.69 377.25 C 463.15 377.68 464.08 378.53 464.54 378.95 C 464.55 379.61 464.56 380.92 464.57 381.57 C 465.08 381.62 466.10 381.73 466.62 381.78 C 467.02 381.35 467.83 380.50 468.23 380.07 C 469.00 380.25 469.77 380.43 470.55 380.61 C 474.70 376.38 475.76 370.32 476.57 364.69 C 483.53 362.86 491.92 360.27 494.93 353.04 C 496.52 350.05 493.92 347.64 492.02 345.70 C 494.69 343.69 497.40 341.74 500.20 339.92 C 500.33 338.36 500.46 336.82 500.58 335.27 C 501.63 334.44 502.69 333.61 503.75 332.79 C 503.67 332.04 503.50 330.53 503.42 329.78 C 508.12 324.79 514.76 331.82 519.74 327.70 C 522.56 328.96 524.16 331.59 525.87 334.00 C 527.65 334.94 529.76 334.95 531.72 335.32 C 528.70 337.42 527.27 340.84 526.31 344.26 C 525.20 344.73 524.10 345.21 523.00 345.68 C 524.58 345.29 526.14 344.76 527.79 344.66 C 528.92 345.58 529.90 346.70 531.09 347.57 C 533.35 347.43 535.28 345.96 537.32 345.09 C 537.35 345.41 537.41 346.05 537.44 346.37 C 540.50 343.09 543.78 340.03 547.21 337.15 C 548.00 341.38 548.46 345.74 550.25 349.71 C 550.39 351.17 550.53 352.64 550.67 354.12 C 549.53 354.89 548.39 355.67 547.26 356.45 C 548.60 357.66 550.00 358.80 551.51 359.81 C 543.58 369.74 534.71 378.93 527.28 389.26 C 526.95 389.55 526.28 390.12 525.95 390.41 C 525.22 389.87 523.75 388.80 523.02 388.26 C 523.69 388.34 525.02 388.51 525.68 388.60 C 526.37 387.96 527.06 387.32 527.75 386.68 C 523.55 386.59 519.14 385.87 515.09 387.32 C 512.99 388.61 511.35 390.64 508.93 391.39 C 502.24 393.64 497.37 399.02 491.82 403.13 C 496.91 401.11 500.37 396.41 505.64 394.72 C 510.66 393.05 515.95 390.53 521.34 391.92 C 521.32 392.68 521.27 394.21 521.24 394.97 C 519.09 398.21 514.42 397.33 511.05 397.43 C 513.42 398.23 515.82 398.93 518.24 399.56 C 514.96 403.33 512.26 407.57 508.90 411.28 C 507.29 411.84 505.65 412.31 504.04 412.83 C 498.28 417.29 489.52 416.62 484.85 422.78 C 483.03 424.73 483.11 427.42 483.59 429.86 C 484.44 428.93 485.29 428.00 486.14 427.07 C 485.50 428.60 484.86 430.14 484.23 431.68 L 484.32 429.98 C 483.78 430.18 482.69 430.56 482.15 430.76 C 478.04 430.48 473.97 431.50 470.14 432.90 C 471.92 433.09 473.72 433.26 475.52 433.44 C 472.66 434.23 469.74 434.74 466.82 435.22 C 465.81 438.45 463.37 440.80 461.02 443.10 C 460.46 442.73 459.33 442.00 458.77 441.63 C 459.81 446.45 455.76 449.43 452.70 452.31 C 453.25 451.16 453.81 450.02 454.38 448.89 C 454.28 446.57 454.32 444.25 454.54 441.94 C 455.12 441.76 456.29 441.41 456.88 441.23 C 456.25 441.28 455.00 441.38 454.37 441.43 C 453.66 443.39 452.97 445.36 452.29 447.34 C 451.19 447.00 450.12 446.69 449.03 446.37 C 450.22 446.85 451.42 447.33 452.63 447.82 C 452.11 449.47 451.60 451.14 451.09 452.81 C 451.59 453.91 452.10 455.02 452.61 456.14 C 451.94 456.79 451.28 457.45 450.62 458.12 C 451.22 460.50 449.62 461.80 447.34 461.93 C 446.88 462.85 446.43 463.78 446.07 464.75 C 441.89 465.85 438.74 469.03 434.85 470.81 C 430.51 475.17 424.01 477.11 420.89 482.67 C 418.72 485.86 419.68 489.89 419.69 493.49 C 416.48 493.00 413.26 492.60 410.07 492.04 C 409.35 490.92 408.68 489.78 408.01 488.64 C 406.11 489.19 404.20 490.99 402.18 490.01 C 401.75 489.59 400.91 488.75 400.49 488.33 C 394.48 486.35 387.93 487.59 381.76 488.16 C 364.53 486.23 347.31 484.00 329.99 483.27 C 323.95 483.54 317.65 482.46 311.86 484.66 C 302.59 487.96 294.36 493.55 286.64 499.56 C 285.76 498.04 284.89 496.53 284.01 495.02 C 283.46 495.13 282.35 495.35 281.80 495.45 C 282.33 494.64 282.87 493.83 283.41 493.04 C 283.02 489.65 282.78 486.25 282.83 482.85 C 280.88 481.85 278.91 480.91 276.93 480.00 C 276.01 483.91 274.05 488.41 276.95 491.97 C 277.43 491.91 278.41 491.78 278.90 491.72 C 279.02 491.92 279.25 492.33 279.36 492.53 C 277.66 496.19 280.46 500.23 281.30 503.86 C 280.02 505.01 278.78 506.21 277.50 507.37 C 274.08 505.84 271.13 503.49 269.08 500.34 C 270.45 500.38 271.83 500.43 273.21 500.49 C 273.66 499.33 274.07 498.15 274.44 496.96 C 273.84 494.12 271.10 492.47 269.90 489.94 C 268.97 484.12 269.04 478.18 268.42 472.33 C 266.06 469.04 262.42 466.65 258.37 466.15 C 259.04 462.93 258.04 459.82 256.69 456.94 C 257.04 456.09 257.39 455.26 257.74 454.42 C 257.37 453.02 257.01 451.61 256.66 450.21 C 257.15 450.26 258.11 450.34 258.60 450.39 C 258.61 449.89 258.64 448.90 258.66 448.41 C 258.21 448.52 257.32 448.75 256.87 448.87 C 256.56 446.96 256.24 445.06 255.96 443.15 C 256.85 440.91 257.25 438.52 256.98 436.12 C 260.43 432.86 261.81 428.35 263.48 424.08 C 265.98 420.47 269.39 417.55 271.83 413.87 C 274.06 411.23 275.36 407.51 278.77 406.13 C 278.44 406.10 277.78 406.05 277.45 406.03 C 278.89 402.74 280.03 399.34 280.98 395.88 C 283.66 396.46 286.33 397.07 288.99 397.75 C 287.51 399.34 285.95 400.86 284.36 402.35 C 289.35 400.02 291.86 393.91 289.83 388.77 C 288.80 389.16 287.75 389.76 287.17 388.37 C 288.13 386.79 289.11 385.23 290.09 383.66 C 286.99 383.35 283.88 383.22 280.78 383.05 L 280.15 382.98 C 280.31 381.58 280.47 380.18 280.57 378.78 C 282.92 377.70 285.35 376.81 287.84 376.13 C 287.41 376.07 286.98 376.03 286.56 375.99 C 284.98 376.22 283.41 376.43 281.84 376.63 C 282.49 375.95 283.81 374.58 284.47 373.90 C 284.29 373.88 283.93 373.84 283.75 373.82 C 283.08 373.87 281.74 373.96 281.07 374.00 C 282.98 372.55 284.70 370.89 286.41 369.23 C 284.50 369.94 282.58 371.06 280.46 370.64 C 281.91 368.54 283.40 366.47 284.87 364.38 C 284.13 363.30 283.39 362.22 282.65 361.16 C 282.60 359.87 282.55 358.59 282.50 357.31 C 283.19 357.27 284.55 357.20 285.23 357.16 C 285.26 355.52 285.29 353.90 285.32 352.27 C 285.71 351.50 286.11 350.73 286.50 349.97 C 285.80 347.67 285.82 345.28 286.59 343.00 C 285.36 344.69 284.07 346.34 282.78 347.99 C 282.58 347.05 282.39 346.10 282.20 345.17 C 281.54 344.85 280.88 344.53 280.23 344.22 C 280.24 344.97 280.25 346.46 280.26 347.21 C 279.01 347.21 277.77 347.23 276.54 347.24 C 274.63 340.25 266.43 338.63 260.17 339.50 C 258.82 338.81 257.48 338.11 256.13 337.43 C 255.62 336.72 255.12 336.02 254.61 335.33 C 252.69 335.39 250.77 335.45 248.85 335.53 C 247.52 337.22 246.17 339.41 243.76 339.48 C 237.81 339.91 232.48 342.95 226.56 343.51 C 230.19 340.68 233.91 337.89 238.05 335.86 C 240.49 334.69 243.26 335.27 245.86 335.31 C 244.73 334.68 243.71 333.34 242.26 333.84 C 236.21 335.27 230.65 338.23 225.09 340.93 C 243.87 321.69 265.20 304.87 288.24 291.02 C 289.54 290.81 290.84 290.62 292.16 290.46 C 292.49 291.01 293.15 292.12 293.48 292.68 C 300.74 291.53 307.69 294.73 314.93 294.30 C 319.49 293.91 323.56 296.61 328.11 296.66 C 330.07 298.84 332.83 299.64 335.70 299.65 C 339.81 295.45 345.90 297.28 351.02 296.02 C 355.38 295.45 360.09 292.78 364.25 295.43 C 366.43 294.40 368.54 293.21 370.79 292.31 C 371.58 293.99 370.77 295.96 370.86 297.74 C 372.27 296.92 373.69 296.13 375.10 295.31 C 375.51 296.00 376.32 297.39 376.72 298.09 C 378.18 297.44 379.63 296.76 381.10 296.12 C 385.97 293.85 390.54 297.61 395.15 298.75 C 398.77 300.07 403.20 298.05 406.21 301.14 C 403.77 302.02 401.28 302.75 398.80 303.52 C 404.06 305.56 409.67 304.20 415.05 303.55 C 417.63 303.22 419.14 305.92 420.77 307.43 C 419.96 307.46 418.34 307.52 417.53 307.54 C 417.79 308.12 418.05 308.71 418.32 309.30 C 419.25 308.59 420.22 307.94 421.15 307.24 C 421.58 303.01 425.94 302.74 429.26 302.29 C 426.96 302.37 424.65 302.41 422.36 302.38 C 425.67 299.72 430.15 299.93 434.11 299.02 C 434.29 300.03 434.52 301.03 434.80 302.03 C 442.02 305.71 450.23 303.44 457.92 304.69 C 457.92 304.39 457.92 303.77 457.92 303.46 C 457.06 303.48 455.34 303.51 454.47 303.52 C 456.98 300.70 460.75 300.96 463.89 302.35 C 462.59 303.65 461.28 304.94 459.98 306.24 C 460.61 306.32 461.86 306.50 462.48 306.58 C 464.24 302.01 469.86 302.87 473.43 300.49 C 472.80 300.24 471.55 299.76 470.92 299.52 C 472.83 298.52 474.81 297.67 476.92 297.17 C 473.65 296.26 470.24 295.98 467.09 297.48 C 467.49 298.09 468.30 299.30 468.70 299.91 C 464.37 301.97 459.67 301.12 455.62 298.86 C 458.58 297.95 461.33 296.55 464.17 295.33 C 465.16 295.69 466.13 296.11 467.09 296.58 C 467.94 296.46 469.64 296.20 470.49 296.07 C 470.49 295.48 470.50 294.31 470.51 293.72 C 472.69 291.20 475.24 288.98 478.57 288.20 M 475.15 312.45 C 476.00 314.44 477.76 315.54 479.93 315.56 C 479.21 313.48 477.25 312.50 475.15 312.45 M 421.38 395.88 C 422.02 396.44 422.68 397.00 423.35 397.56 C 422.90 397.93 422.00 398.67 421.55 399.04 C 420.94 398.52 420.33 398.02 419.71 397.54 C 415.23 399.17 410.97 401.31 406.84 403.68 C 408.80 403.73 410.93 403.27 412.65 404.46 C 417.12 404.24 420.85 401.37 425.09 400.25 C 424.11 401.08 423.12 401.91 422.14 402.73 C 423.73 403.53 425.10 405.09 426.96 405.25 C 429.30 404.76 431.63 404.19 434.04 404.09 C 435.36 405.25 436.83 406.20 438.30 407.18 C 436.75 407.57 435.20 407.95 433.66 408.33 C 435.03 409.37 436.44 410.37 437.88 411.34 C 437.42 412.75 437.03 414.20 436.38 415.55 C 434.92 416.99 433.10 418.06 431.98 419.82 C 433.89 419.02 435.74 418.09 437.63 417.25 C 437.49 419.16 437.34 421.09 437.21 423.02 C 438.84 422.02 440.33 420.79 441.22 419.06 C 442.62 416.60 445.27 414.77 445.47 411.75 C 446.53 413.14 447.67 414.47 448.89 415.73 C 449.71 414.84 450.53 413.95 451.36 413.06 C 450.85 411.51 450.36 409.96 449.87 408.41 C 445.49 406.80 440.58 407.43 436.38 405.33 C 436.93 402.94 437.33 400.51 437.63 398.08 C 436.82 398.15 435.21 398.29 434.40 398.36 C 434.19 397.06 434.42 395.63 433.84 394.44 C 432.21 393.94 430.53 393.56 428.84 393.56 C 426.42 394.54 424.10 395.93 421.38 395.88 M 419.58 413.33 C 420.24 415.64 418.04 417.22 416.93 418.96 C 414.34 421.92 413.32 425.81 412.68 429.60 C 415.09 429.91 417.20 428.53 418.72 426.80 C 421.69 424.05 420.57 419.33 423.35 416.44 C 425.78 412.34 431.54 412.19 433.63 407.72 C 428.54 407.66 422.69 408.87 419.58 413.33 M 460.32 418.28 C 456.01 417.48 451.08 418.34 448.06 421.76 C 451.04 421.32 454.05 420.60 457.07 421.27 C 460.35 422.00 464.64 420.22 464.47 416.31 C 463.08 416.95 461.71 417.62 460.32 418.28 M 443.96 425.05 C 439.89 423.78 436.92 427.63 433.03 427.83 C 431.51 427.72 430.46 428.41 429.89 429.78 C 432.42 430.72 435.28 431.08 437.76 429.78 C 441.96 427.79 446.92 427.13 450.38 423.80 C 448.12 423.42 445.95 424.00 443.96 425.05 Z" />
<path fill="#00bff3" stroke="#00bff3" stroke-width="0.09375" opacity="1.00" d=" M 489.51 284.37 C 492.23 286.18 494.93 288.01 497.65 289.83 C 497.23 290.16 496.39 290.83 495.97 291.17 C 497.09 292.98 499.25 293.63 501.01 294.64 C 501.50 294.33 502.48 293.70 502.97 293.38 L 504.43 294.36 C 504.07 295.89 503.86 297.55 502.97 298.89 C 501.07 300.28 498.98 301.40 496.99 302.65 C 495.87 302.76 494.19 301.97 493.78 303.49 C 493.01 305.58 490.93 306.35 489.05 307.15 C 488.93 306.33 488.69 304.68 488.57 303.86 C 489.50 302.11 492.18 301.97 492.82 299.97 C 492.41 298.89 491.44 297.44 490.11 297.79 C 487.65 299.05 485.52 300.83 483.24 302.37 C 483.91 301.00 484.58 299.62 485.26 298.25 C 485.80 297.91 486.88 297.23 487.42 296.89 C 485.46 296.50 483.50 296.16 481.54 295.79 C 482.86 295.13 484.20 294.49 485.52 293.84 C 485.75 292.17 485.96 290.50 486.16 288.83 C 485.81 288.00 485.47 287.17 485.13 286.35 C 486.59 285.69 488.05 285.03 489.51 284.37 Z" />
<path fill="#9ae373" stroke="#9ae373" stroke-width="0.09375" opacity="1.00" d=" M 495.97 291.17 C 496.39 290.83 497.23 290.16 497.65 289.83 C 499.43 290.98 501.19 292.20 502.97 293.38 C 502.48 293.70 501.50 294.33 501.01 294.64 C 499.25 293.63 497.09 292.98 495.97 291.17 Z" />
<path fill="#2fcacd" stroke="#2fcacd" stroke-width="0.09375" opacity="1.00" d=" M 459.03 291.37 C 462.36 291.57 457.44 294.33 459.03 291.37 Z" />
<path fill="#54d3ad" stroke="#54d3ad" stroke-width="0.09375" opacity="1.00" d=" M 375.10 295.31 C 376.00 294.79 376.90 294.27 377.84 293.81 C 378.18 294.51 378.86 295.92 379.20 296.62 C 379.68 296.50 380.63 296.25 381.10 296.12 C 379.63 296.76 378.18 297.44 376.72 298.09 C 376.32 297.39 375.51 296.00 375.10 295.31 Z" />
<path fill="#73da93" stroke="#73da93" stroke-width="0.09375" opacity="1.00" d=" M 452.23 299.18 C 452.77 299.69 452.77 299.69 452.23 299.18 Z" />
<path fill="#00bff3" stroke="#00bff3" stroke-width="0.09375" opacity="1.00" d=" M 509.57 301.62 C 511.03 301.35 512.50 301.08 513.97 300.82 C 519.29 304.52 524.73 308.06 529.96 311.90 C 530.14 312.44 530.51 313.52 530.69 314.06 C 526.43 314.93 522.04 315.77 517.75 314.64 C 515.58 315.61 513.36 316.55 511.48 318.02 C 511.66 318.43 512.01 319.25 512.19 319.65 C 517.07 320.31 521.87 318.60 526.75 318.56 C 528.06 320.48 529.68 322.19 531.92 323.03 C 531.24 323.34 530.57 323.64 529.91 323.96 C 530.52 325.22 531.13 326.50 531.75 327.77 C 532.78 327.43 533.80 327.08 534.84 326.75 C 538.33 329.56 542.88 330.19 547.17 330.84 C 546.40 327.02 542.54 325.30 540.77 322.07 C 545.53 323.54 549.76 326.22 553.87 328.97 C 558.78 332.27 563.36 336.04 568.33 339.27 C 567.16 341.08 565.95 342.87 564.49 344.45 C 559.93 349.37 555.90 354.75 551.51 359.81 C 550.00 358.80 548.60 357.66 547.26 356.45 C 548.39 355.67 549.53 354.89 550.67 354.12 C 550.53 352.64 550.39 351.17 550.25 349.71 C 548.46 345.74 548.00 341.38 547.21 337.15 C 543.78 340.03 540.50 343.09 537.44 346.37 C 537.41 346.05 537.35 345.41 537.32 345.09 C 535.28 345.96 533.35 347.43 531.09 347.57 C 529.90 346.70 528.92 345.58 527.79 344.66 C 526.14 344.76 524.58 345.29 523.00 345.68 C 524.10 345.21 525.20 344.73 526.31 344.26 C 527.27 340.84 528.70 337.42 531.72 335.32 C 529.76 334.95 527.65 334.94 525.87 334.00 C 524.16 331.59 522.56 328.96 519.74 327.70 C 514.76 331.82 508.12 324.79 503.42 329.78 C 503.50 330.53 503.67 332.04 503.75 332.79 C 502.69 333.61 501.63 334.44 500.58 335.27 C 500.46 336.82 500.33 338.36 500.20 339.92 C 497.40 341.74 494.69 343.69 492.02 345.70 C 493.92 347.64 496.52 350.05 494.93 353.04 C 491.92 360.27 483.53 362.86 476.57 364.69 C 475.76 370.32 474.70 376.38 470.55 380.61 C 469.77 380.43 469.00 380.25 468.23 380.07 C 467.83 380.50 467.02 381.35 466.62 381.78 C 466.10 381.73 465.08 381.62 464.57 381.57 C 464.56 380.92 464.55 379.61 464.54 378.95 C 464.08 378.53 463.15 377.68 462.69 377.25 C 462.51 375.89 462.33 374.54 462.16 373.19 C 463.87 369.60 465.50 365.96 467.73 362.65 C 464.56 362.28 461.29 362.49 458.20 361.66 C 455.16 360.20 451.89 358.87 449.63 356.28 C 446.26 352.60 440.61 352.08 436.12 353.73 C 436.97 350.98 437.80 348.22 438.66 345.47 C 436.95 345.35 435.23 345.22 433.53 345.10 C 440.24 334.36 452.30 328.13 464.22 324.97 C 461.82 322.24 458.17 321.83 454.84 321.11 C 459.60 321.61 464.75 324.35 469.23 321.40 C 473.98 321.83 478.07 319.29 481.91 316.84 C 483.78 314.22 486.85 313.07 489.69 311.83 C 489.56 311.26 489.31 310.13 489.18 309.56 C 491.00 310.03 492.81 310.51 494.63 311.01 C 494.83 311.68 495.24 313.03 495.45 313.70 C 495.85 313.72 496.65 313.76 497.06 313.77 C 497.63 312.33 498.23 310.90 498.84 309.48 C 499.05 309.81 499.48 310.49 499.70 310.83 C 503.39 309.53 506.98 307.95 510.51 306.26 C 510.19 304.71 509.88 303.16 509.57 301.62 M 481.63 320.59 C 479.95 321.23 478.29 321.92 476.69 322.71 C 478.54 322.71 480.40 322.66 482.26 322.60 C 481.99 323.24 481.45 324.50 481.17 325.13 C 485.29 324.74 488.82 322.46 492.21 320.28 C 493.00 321.04 493.79 321.82 494.58 322.61 C 497.05 323.60 499.60 323.32 501.99 322.22 C 501.03 321.06 499.75 320.57 498.14 320.74 C 498.23 320.10 498.40 318.83 498.49 318.19 C 496.08 316.86 493.79 315.26 491.11 314.51 C 491.23 313.99 491.47 312.96 491.59 312.45 C 486.98 312.87 484.53 317.53 481.63 320.59 M 510.49 321.29 C 509.78 322.59 511.58 324.70 512.98 323.84 C 513.99 322.49 511.80 320.55 510.49 321.29 M 507.11 323.45 C 505.97 324.85 508.58 326.04 509.50 324.90 C 510.52 323.52 508.01 322.39 507.11 323.45 M 483.99 329.41 C 487.50 329.88 490.51 327.90 493.28 326.04 C 489.88 325.71 485.84 326.14 483.99 329.41 M 495.51 332.45 C 497.76 331.80 500.30 330.49 500.34 327.79 C 498.12 328.53 495.12 329.46 495.51 332.45 M 549.27 330.38 C 547.83 330.45 547.19 333.15 548.97 333.17 C 550.42 333.15 550.95 330.40 549.27 330.38 M 534.25 337.18 C 534.26 340.50 537.29 335.69 534.25 337.18 M 478.55 359.34 C 480.94 359.04 483.80 358.66 485.07 356.31 C 482.34 355.98 479.48 356.33 478.55 359.34 M 463.78 371.84 C 461.84 374.01 465.47 374.15 466.85 374.77 C 467.43 372.49 466.05 371.37 463.78 371.84 Z" />
<path fill="#5ed5a5" stroke="#5ed5a5" stroke-width="0.09375" opacity="1.00" d=" M 497.56 307.09 C 497.97 307.89 498.38 308.69 498.84 309.48 C 498.23 310.90 497.63 312.33 497.06 313.77 C 496.65 313.76 495.85 313.72 495.45 313.70 C 495.24 313.03 494.83 311.68 494.63 311.01 C 495.22 310.74 496.41 310.19 497.00 309.92 C 497.14 309.21 497.42 307.80 497.56 307.09 Z" />
<path fill="#00bff3" stroke="#00bff3" stroke-width="0.09375" opacity="1.00" d=" M 475.15 312.45 C 477.25 312.50 479.21 313.48 479.93 315.56 C 477.76 315.54 476.00 314.44 475.15 312.45 Z" />
<path fill="#9ae373" stroke="#9ae373" stroke-width="0.09375" opacity="1.00" d=" M 529.96 311.90 C 537.99 317.50 546.11 323.00 553.87 328.97 C 549.76 326.22 545.53 323.54 540.77 322.07 C 542.54 325.30 546.40 327.02 547.17 330.84 C 542.88 330.19 538.33 329.56 534.84 326.75 C 533.80 327.08 532.78 327.43 531.75 327.77 C 531.13 326.50 530.52 325.22 529.91 323.96 C 530.57 323.64 531.24 323.34 531.92 323.03 C 529.68 322.19 528.06 320.48 526.75 318.56 C 521.87 318.60 517.07 320.31 512.19 319.65 C 512.01 319.25 511.66 318.43 511.48 318.02 C 513.36 316.55 515.58 315.61 517.75 314.64 C 522.04 315.77 526.43 314.93 530.69 314.06 C 530.51 313.52 530.14 312.44 529.96 311.90 Z" />
<path fill="#9ae373" stroke="#9ae373" stroke-width="0.09375" opacity="1.00" d=" M 481.63 320.59 C 484.53 317.53 486.98 312.87 491.59 312.45 C 491.47 312.96 491.23 313.99 491.11 314.51 C 493.79 315.26 496.08 316.86 498.49 318.19 C 498.40 318.83 498.23 320.10 498.14 320.74 C 499.75 320.57 501.03 321.06 501.99 322.22 C 499.60 323.32 497.05 323.60 494.58 322.61 C 493.79 321.82 493.00 321.04 492.21 320.28 C 488.82 322.46 485.29 324.74 481.17 325.13 C 481.45 324.50 481.99 323.24 482.26 322.60 C 480.40 322.66 478.54 322.71 476.69 322.71 C 478.29 321.92 479.95 321.23 481.63 320.59 Z" />
<path fill="#3ccdc2" stroke="#3ccdc2" stroke-width="0.09375" opacity="1.00" d=" M 510.49 321.29 C 511.80 320.55 513.99 322.49 512.98 323.84 C 511.58 324.70 509.78 322.59 510.49 321.29 Z" />
<path fill="#66d79f" stroke="#66d79f" stroke-width="0.09375" opacity="1.00" d=" M 507.11 323.45 C 508.01 322.39 510.52 323.52 509.50 324.90 C 508.58 326.04 505.97 324.85 507.11 323.45 Z" />
<path fill="#9ae373" stroke="#9ae373" stroke-width="0.09375" opacity="1.00" d=" M 483.99 329.41 C 485.84 326.14 489.88 325.71 493.28 326.04 C 490.51 327.90 487.50 329.88 483.99 329.41 Z" />
<path fill="#7cdc8c" stroke="#7cdc8c" stroke-width="0.09375" opacity="1.00" d=" M 495.51 332.45 C 495.12 329.46 498.12 328.53 500.34 327.79 C 500.30 330.49 497.76 331.80 495.51 332.45 Z" />
<path fill="#55d3ad" stroke="#55d3ad" stroke-width="0.09375" opacity="1.00" d=" M 549.27 330.38 C 550.95 330.40 550.42 333.15 548.97 333.17 C 547.19 333.15 547.83 330.45 549.27 330.38 Z" />
<path fill="#00bff3" stroke="#00bff3" stroke-width="0.09375" opacity="1.00" d=" M 225.09 340.93 C 230.65 338.23 236.21 335.27 242.26 333.84 C 243.71 333.34 244.73 334.68 245.86 335.31 C 243.26 335.27 240.49 334.69 238.05 335.86 C 233.91 337.89 230.19 340.68 226.56 343.51 C 232.48 342.95 237.81 339.91 243.76 339.48 C 246.17 339.41 247.52 337.22 248.85 335.53 C 250.77 335.45 252.69 335.39 254.61 335.33 C 255.12 336.02 255.62 336.72 256.13 337.43 C 257.48 338.11 258.82 338.81 260.17 339.50 C 266.43 338.63 274.63 340.25 276.54 347.24 C 276.23 349.36 275.57 351.41 274.75 353.39 C 274.67 354.89 274.60 356.40 274.55 357.91 C 275.46 358.70 276.36 359.50 277.28 360.30 C 276.86 360.74 276.02 361.62 275.60 362.05 C 275.38 362.87 275.16 363.69 274.96 364.52 C 276.25 364.51 277.55 364.51 278.85 364.53 C 279.20 363.96 279.90 362.81 280.26 362.24 C 280.89 363.62 281.47 365.04 281.93 366.49 C 280.71 367.93 279.53 369.40 278.37 370.88 C 278.96 371.65 279.55 372.43 280.14 373.22 C 280.32 375.07 280.52 376.92 280.57 378.78 C 280.47 380.18 280.31 381.58 280.15 382.98 L 280.78 383.05 C 281.24 383.56 282.15 384.57 282.61 385.08 L 281.09 385.11 C 279.13 384.47 277.15 383.88 275.15 383.38 C 275.60 387.39 279.15 389.78 280.79 393.26 C 281.96 395.77 285.04 395.67 287.35 396.20 C 288.11 392.66 284.68 390.28 285.13 386.76 C 285.64 387.16 286.66 387.97 287.17 388.37 C 287.75 389.76 288.80 389.16 289.83 388.77 C 291.86 393.91 289.35 400.02 284.36 402.35 C 285.95 400.86 287.51 399.34 288.99 397.75 C 286.33 397.07 283.66 396.46 280.98 395.88 C 280.03 399.34 278.89 402.74 277.45 406.03 C 277.78 406.05 278.44 406.10 278.77 406.13 C 275.36 407.51 274.06 411.23 271.83 413.87 C 269.39 417.55 265.98 420.47 263.48 424.08 C 261.81 428.35 260.43 432.86 256.98 436.12 C 257.25 438.52 256.85 440.91 255.96 443.15 C 256.24 445.06 256.56 446.96 256.87 448.87 C 257.32 448.75 258.21 448.52 258.66 448.41 C 258.64 448.90 258.61 449.89 258.60 450.39 C 258.11 450.34 257.15 450.26 256.66 450.21 C 257.01 451.61 257.37 453.02 257.74 454.42 C 257.39 455.26 257.04 456.09 256.69 456.94 C 258.04 459.82 259.04 462.93 258.37 466.15 C 262.42 466.65 266.06 469.04 268.42 472.33 C 269.04 478.18 268.97 484.12 269.90 489.94 C 271.10 492.47 273.84 494.12 274.44 496.96 C 274.07 498.15 273.66 499.33 273.21 500.49 C 271.83 500.43 270.45 500.38 269.08 500.34 C 271.13 503.49 274.08 505.84 277.50 507.37 C 270.22 513.19 264.54 520.62 258.03 527.21 C 277.59 537.57 297.68 546.92 317.53 556.73 C 333.84 564.54 350.08 572.51 366.46 580.19 C 347.26 601.80 328.18 623.52 309.00 645.14 C 279.40 625.70 251.69 603.34 226.65 578.32 C 224.24 576.09 221.67 574.02 219.48 571.57 C 212.97 564.07 205.43 557.53 199.07 549.90 C 178.89 528.16 160.69 504.67 143.20 480.74 C 151.96 449.96 165.35 420.51 182.70 393.63 C 192.28 379.00 202.69 364.80 214.70 352.08 C 215.03 351.81 215.69 351.27 216.01 350.99 C 217.63 349.60 219.49 348.55 221.25 347.36 C 221.10 346.88 220.81 345.92 220.66 345.44 C 222.09 343.89 223.46 342.28 225.09 340.93 M 270.15 369.13 C 269.03 372.00 268.83 375.46 270.55 378.14 C 270.56 377.34 270.58 375.75 270.59 374.95 C 271.87 372.23 273.76 369.91 276.17 368.11 C 274.16 367.99 271.16 366.48 270.15 369.13 M 269.17 498.24 C 269.67 498.74 269.67 498.74 269.17 498.24 Z" />
<path fill="#6ad89b" stroke="#6ad89b" stroke-width="0.09375" opacity="1.00" d=" M 534.25 337.18 C 537.29 335.69 534.26 340.50 534.25 337.18 Z" />
<path fill="#32cbc9" stroke="#32cbc9" stroke-width="0.09375" opacity="1.00" d=" M 282.78 347.99 C 284.07 346.34 285.36 344.69 286.59 343.00 C 285.82 345.28 285.80 347.67 286.50 349.97 C 286.11 350.73 285.71 351.50 285.32 352.27 C 285.29 353.90 285.26 355.52 285.23 357.16 C 284.55 357.20 283.19 357.27 282.50 357.31 C 282.55 358.59 282.60 359.87 282.65 361.16 C 283.39 362.22 284.13 363.30 284.87 364.38 C 283.40 366.47 281.91 368.54 280.46 370.64 C 282.58 371.06 284.50 369.94 286.41 369.23 C 284.70 370.89 282.98 372.55 281.07 374.00 C 281.74 373.96 283.08 373.87 283.75 373.82 C 283.93 373.84 284.29 373.88 284.47 373.90 C 283.81 374.58 282.49 375.95 281.84 376.63 C 283.41 376.43 284.98 376.22 286.56 375.99 C 286.98 376.03 287.41 376.07 287.84 376.13 C 285.35 376.81 282.92 377.70 280.57 378.78 C 280.52 376.92 280.32 375.07 280.14 373.22 C 279.55 372.43 278.96 371.65 278.37 370.88 C 279.53 369.40 280.71 367.93 281.93 366.49 C 281.47 365.04 280.89 363.62 280.26 362.24 C 280.62 360.42 280.84 358.58 281.04 356.74 C 279.63 357.75 278.41 358.99 277.28 360.30 C 276.36 359.50 275.46 358.70 274.55 357.91 C 274.60 356.40 274.67 354.89 274.75 353.39 C 275.57 351.41 276.23 349.36 276.54 347.24 C 277.77 347.23 279.01 347.21 280.26 347.21 C 280.25 346.46 280.24 344.97 280.23 344.22 C 280.88 344.53 281.54 344.85 282.20 345.17 C 282.39 346.10 282.58 347.05 282.78 347.99 M 276.78 348.97 C 276.69 351.63 276.24 354.26 275.58 356.84 C 276.16 356.35 277.33 355.36 277.92 354.87 C 279.18 353.50 278.65 351.75 278.16 350.21 C 278.60 350.55 279.50 351.24 279.95 351.58 C 280.44 350.89 281.43 349.50 281.93 348.80 C 280.29 347.33 278.48 348.21 276.78 348.97 M 283.42 349.20 C 282.31 349.29 281.17 351.70 282.80 351.79 C 283.91 351.70 285.06 349.25 283.42 349.20 M 277.92 354.87 C 277.95 355.31 278.03 356.20 278.06 356.64 C 280.13 355.96 285.08 357.35 284.15 353.80 C 282.04 353.99 279.98 354.44 277.92 354.87 Z" />
<path fill="#7ddc8b" stroke="#7ddc8b" stroke-width="0.09375" opacity="1.00" d=" M 214.70 352.08 C 216.49 349.68 218.55 347.54 220.66 345.44 C 220.81 345.92 221.10 346.88 221.25 347.36 C 219.49 348.55 217.63 349.60 216.01 350.99 C 215.69 351.27 215.03 351.81 214.70 352.08 Z" />
<path fill="#87df83" stroke="#87df83" stroke-width="0.09375" opacity="1.00" d=" M 276.78 348.97 C 278.48 348.21 280.29 347.33 281.93 348.80 C 281.43 349.50 280.44 350.89 279.95 351.58 C 279.50 351.24 278.60 350.55 278.16 350.21 C 278.65 351.75 279.18 353.50 277.92 354.87 C 277.33 355.36 276.16 356.35 275.58 356.84 C 276.24 354.26 276.69 351.63 276.78 348.97 Z" />
<path fill="#90e07c" stroke="#90e07c" stroke-width="0.09375" opacity="1.00" d=" M 283.42 349.20 C 285.06 349.25 283.91 351.70 282.80 351.79 C 281.17 351.70 282.31 349.29 283.42 349.20 Z" />
<path fill="#7bdc8d" stroke="#7bdc8d" stroke-width="0.09375" opacity="1.00" d=" M 277.92 354.87 C 279.98 354.44 282.04 353.99 284.15 353.80 C 285.08 357.35 280.13 355.96 278.06 356.64 C 278.03 356.20 277.95 355.31 277.92 354.87 Z" />
<path fill="#7ddc8b" stroke="#7ddc8b" stroke-width="0.09375" opacity="1.00" d=" M 478.55 359.34 C 479.48 356.33 482.34 355.98 485.07 356.31 C 483.80 358.66 480.94 359.04 478.55 359.34 Z" />
<path fill="#94e27c" stroke="#94e27c" stroke-width="0.09375" opacity="1.00" d=" M 277.28 360.30 C 278.41 358.99 279.63 357.75 281.04 356.74 C 280.84 358.58 280.62 360.42 280.26 362.24 C 279.90 362.81 279.20 363.96 278.85 364.53 C 277.55 364.51 276.25 364.51 274.96 364.52 C 275.16 363.69 275.38 362.87 275.60 362.05 C 276.02 361.62 276.86 360.74 277.28 360.30 Z" />
<path fill="#8ee085" stroke="#8ee085" stroke-width="0.09375" opacity="1.00" d=" M 270.15 369.13 C 271.16 366.48 274.16 367.99 276.17 368.11 C 273.76 369.91 271.87 372.23 270.59 374.95 C 270.58 375.75 270.56 377.34 270.55 378.14 C 268.83 375.46 269.03 372.00 270.15 369.13 Z" />
<path fill="#9ae373" stroke="#9ae373" stroke-width="0.09375" opacity="1.00" d=" M 463.78 371.84 C 466.05 371.37 467.43 372.49 466.85 374.77 C 465.47 374.15 461.84 374.01 463.78 371.84 Z" />
<path fill="#7ddc8b" stroke="#7ddc8b" stroke-width="0.09375" opacity="1.00" d=" M 280.78 383.05 C 283.88 383.22 286.99 383.35 290.09 383.66 C 289.11 385.23 288.13 386.79 287.17 388.37 C 286.66 387.97 285.64 387.16 285.13 386.76 C 283.80 386.16 282.45 385.62 281.09 385.11 L 282.61 385.08 C 282.15 384.57 281.24 383.56 280.78 383.05 Z" />
<path fill="#9ae373" stroke="#9ae373" stroke-width="0.09375" opacity="1.00" d=" M 275.15 383.38 C 277.15 383.88 279.13 384.47 281.09 385.11 C 282.45 385.62 283.80 386.16 285.13 386.76 C 284.68 390.28 288.11 392.66 287.35 396.20 C 285.04 395.67 281.96 395.77 280.79 393.26 C 279.15 389.78 275.60 387.39 275.15 383.38 Z" />
<path fill="#00bff3" stroke="#00bff3" stroke-width="0.09375" opacity="1.00" d=" M 508.93 391.39 C 511.35 390.64 512.99 388.61 515.09 387.32 C 519.14 385.87 523.55 386.59 527.75 386.68 C 527.06 387.32 526.37 387.96 525.68 388.60 C 525.02 388.51 523.69 388.34 523.02 388.26 C 523.75 388.80 525.22 389.87 525.95 390.41 C 523.41 393.48 521.04 396.70 518.24 399.56 C 515.82 398.93 513.42 398.23 511.05 397.43 C 514.42 397.33 519.09 398.21 521.24 394.97 C 521.27 394.21 521.32 392.68 521.34 391.92 C 515.95 390.53 510.66 393.05 505.64 394.72 C 500.37 396.41 496.91 401.11 491.82 403.13 C 497.37 399.02 502.24 393.64 508.93 391.39 Z" />
<path fill="#00bff3" stroke="#00bff3" stroke-width="0.09375" opacity="1.00" d=" M 421.38 395.88 C 424.10 395.93 426.42 394.54 428.84 393.56 C 430.53 393.56 432.21 393.94 433.84 394.44 C 434.42 395.63 434.19 397.06 434.40 398.36 C 435.21 398.29 436.82 398.15 437.63 398.08 C 437.33 400.51 436.93 402.94 436.38 405.33 C 440.58 407.43 445.49 406.80 449.87 408.41 C 450.36 409.96 450.85 411.51 451.36 413.06 C 450.53 413.95 449.71 414.84 448.89 415.73 C 447.67 414.47 446.53 413.14 445.47 411.75 C 445.27 414.77 442.62 416.60 441.22 419.06 C 440.33 420.79 438.84 422.02 437.21 423.02 C 437.34 421.09 437.49 419.16 437.63 417.25 C 435.74 418.09 433.89 419.02 431.98 419.82 C 433.10 418.06 434.92 416.99 436.38 415.55 C 437.03 414.20 437.42 412.75 437.88 411.34 C 436.44 410.37 435.03 409.37 433.66 408.33 C 435.20 407.95 436.75 407.57 438.30 407.18 C 436.83 406.20 435.36 405.25 434.04 404.09 C 431.63 404.19 429.30 404.76 426.96 405.25 C 425.10 405.09 423.73 403.53 422.14 402.73 C 423.12 401.91 424.11 401.08 425.09 400.25 C 420.85 401.37 417.12 404.24 412.65 404.46 C 410.93 403.27 408.80 403.73 406.84 403.68 C 410.97 401.31 415.23 399.17 419.71 397.54 C 420.33 398.02 420.94 398.52 421.55 399.04 C 422.00 398.67 422.90 397.93 423.35 397.56 C 422.68 397.00 422.02 396.44 421.38 395.88 M 438.91 408.49 C 441.28 409.16 443.68 409.71 446.13 409.99 C 445.38 406.62 441.34 408.80 438.91 408.49 Z" />
<path fill="#00bff3" stroke="#00bff3" stroke-width="0.09375" opacity="1.00" d=" M 419.58 413.33 C 422.69 408.87 428.54 407.66 433.63 407.72 C 431.54 412.19 425.78 412.34 423.35 416.44 C 420.57 419.33 421.69 424.05 418.72 426.80 C 417.20 428.53 415.09 429.91 412.68 429.60 C 413.32 425.81 414.34 421.92 416.93 418.96 C 418.04 417.22 420.24 415.64 419.58 413.33 Z" />
<path fill="#94e27c" stroke="#94e27c" stroke-width="0.09375" opacity="1.00" d=" M 438.91 408.49 C 441.34 408.80 445.38 406.62 446.13 409.99 C 443.68 409.71 441.28 409.16 438.91 408.49 Z" />
<path fill="#00bff3" stroke="#00bff3" stroke-width="0.09375" opacity="1.00" d=" M 504.04 412.83 C 505.65 412.31 507.29 411.84 508.90 411.28 C 491.77 432.11 475.06 453.29 458.68 474.72 C 452.86 481.82 447.86 489.53 442.04 496.63 C 434.55 495.90 427.14 494.50 419.69 493.49 C 419.68 489.89 418.72 485.86 420.89 482.67 C 424.01 477.11 430.51 475.17 434.85 470.81 C 438.74 469.03 441.89 465.85 446.07 464.75 C 446.43 463.78 446.88 462.85 447.34 461.93 C 449.62 461.80 451.22 460.50 450.62 458.12 C 451.28 457.45 451.94 456.79 452.61 456.14 C 452.10 455.02 451.59 453.91 451.09 452.81 C 451.60 451.14 452.11 449.47 452.63 447.82 C 451.42 447.33 450.22 446.85 449.03 446.37 C 450.12 446.69 451.19 447.00 452.29 447.34 C 452.97 445.36 453.66 443.39 454.37 441.43 C 455.00 441.38 456.25 441.28 456.88 441.23 C 456.29 441.41 455.12 441.76 454.54 441.94 C 454.32 444.25 454.28 446.57 454.38 448.89 C 453.81 450.02 453.25 451.16 452.70 452.31 C 455.76 449.43 459.81 446.45 458.77 441.63 C 459.33 442.00 460.46 442.73 461.02 443.10 C 463.37 440.80 465.81 438.45 466.82 435.22 C 469.74 434.74 472.66 434.23 475.52 433.44 C 473.72 433.26 471.92 433.09 470.14 432.90 C 473.97 431.50 478.04 430.48 482.15 430.76 C 482.69 430.56 483.78 430.18 484.32 429.98 L 484.23 431.68 C 484.86 430.14 485.50 428.60 486.14 427.07 C 485.29 428.00 484.44 428.93 483.59 429.86 C 483.11 427.42 483.03 424.73 484.85 422.78 C 489.52 416.62 498.28 417.29 504.04 412.83 Z" />
<path fill="#00bff3" stroke="#00bff3" stroke-width="0.09375" opacity="1.00" d=" M 460.32 418.28 C 461.71 417.62 463.08 416.95 464.47 416.31 C 464.64 420.22 460.35 422.00 457.07 421.27 C 454.05 420.60 451.04 421.32 448.06 421.76 C 451.08 418.34 456.01 417.48 460.32 418.28 Z" />
<path fill="#00bff3" stroke="#00bff3" stroke-width="0.09375" opacity="1.00" d=" M 443.96 425.05 C 445.95 424.00 448.12 423.42 450.38 423.80 C 446.92 427.13 441.96 427.79 437.76 429.78 C 435.28 431.08 432.42 430.72 429.89 429.78 C 430.46 428.41 431.51 427.72 433.03 427.83 C 436.92 427.63 439.89 423.78 443.96 425.05 Z" />
<path fill="#00acda" stroke="#00acda" stroke-width="0.09375" opacity="1.00" d=" M 624.85 468.76 C 637.76 457.42 651.22 446.71 663.97 435.18 C 705.93 492.38 744.38 552.04 782.14 612.05 C 774.05 676.09 746.46 737.47 703.82 785.93 C 654.07 843.06 583.94 882.15 509.00 893.61 C 510.46 891.50 512.11 889.53 513.92 887.71 C 513.54 886.36 513.51 884.84 512.73 883.68 C 509.28 882.67 504.94 881.73 503.47 878.02 C 502.71 874.40 506.37 873.10 509.09 872.35 C 509.56 869.08 507.69 865.63 509.80 862.69 C 509.45 862.39 508.74 861.77 508.39 861.47 C 508.56 860.67 508.74 859.88 508.92 859.11 C 508.11 858.62 507.30 858.14 506.49 857.67 C 505.67 855.54 504.84 853.42 504.03 851.31 C 507.63 852.17 511.75 854.47 515.31 852.19 C 515.49 849.82 514.46 847.45 514.56 845.05 C 514.00 844.11 513.44 843.19 512.88 842.29 C 518.69 842.40 524.83 841.90 530.05 839.15 C 532.54 836.70 533.30 832.98 533.79 829.63 C 530.55 828.72 529.71 825.84 529.16 822.90 C 527.49 821.48 525.50 820.54 523.63 819.46 C 523.09 817.89 522.56 816.34 522.06 814.78 C 522.31 812.87 522.50 810.96 522.65 809.06 C 522.76 809.78 522.88 810.52 523.01 811.27 C 522.42 813.49 521.76 816.30 524.19 817.70 C 528.97 820.10 534.43 822.07 539.87 821.10 C 542.04 820.69 543.01 818.54 544.02 816.84 C 546.18 812.89 548.68 808.73 548.38 804.05 C 549.21 802.16 550.04 800.27 550.86 798.38 C 551.43 798.30 552.57 798.12 553.14 798.03 C 552.40 800.14 551.66 802.25 551.03 804.40 C 553.62 801.73 554.52 798.09 555.54 794.64 C 556.33 791.35 559.87 789.44 560.12 785.98 C 560.14 781.89 557.91 777.96 558.87 773.86 C 561.79 769.42 566.03 765.30 571.45 764.31 C 572.86 763.03 574.27 761.75 575.69 760.48 C 579.06 760.62 582.43 760.43 585.79 760.11 C 585.98 759.45 586.37 758.11 586.57 757.44 C 587.57 756.86 588.58 756.29 589.60 755.72 C 589.73 751.06 592.58 747.32 594.21 743.16 C 594.70 740.01 594.56 736.75 595.79 733.73 C 598.52 725.52 595.24 716.99 596.77 708.66 C 597.70 708.65 598.64 708.61 599.58 708.54 C 601.76 705.32 602.66 701.44 604.62 698.09 C 605.44 697.47 606.30 696.90 607.13 696.30 C 613.48 696.23 619.49 693.94 625.63 692.62 C 671.71 680.78 716.02 662.47 757.73 639.66 C 760.32 638.34 762.80 636.81 765.20 635.17 C 737.29 588.67 709.40 542.15 681.47 495.65 C 675.99 486.76 671.01 477.55 665.13 468.92 C 619.59 501.73 574.46 535.13 528.94 567.98 C 527.53 568.77 526.91 570.26 527.32 571.85 C 529.46 586.94 532.16 601.96 533.98 617.10 C 531.28 614.48 527.67 612.92 523.99 612.36 C 520.16 612.21 516.32 612.62 512.50 612.23 C 510.28 596.26 508.17 580.26 505.47 564.37 C 546.49 534.07 585.70 501.42 624.85 468.76 M 510.39 857.49 C 510.41 859.10 510.48 860.71 510.62 862.32 C 511.46 862.15 513.13 861.82 513.97 861.65 C 513.28 859.83 512.74 857.67 510.39 857.49 Z" />
<path fill="#00bff3" stroke="#00bff3" stroke-width="0.09375" opacity="1.00" d=" M 528.94 567.98 C 574.46 535.13 619.59 501.73 665.13 468.92 C 671.01 477.55 675.99 486.76 681.47 495.65 C 709.40 542.15 737.29 588.67 765.20 635.17 C 762.80 636.81 760.32 638.34 757.73 639.66 C 716.02 662.47 671.71 680.78 625.63 692.62 C 619.49 693.94 613.48 696.23 607.13 696.30 C 609.53 693.12 612.15 689.88 613.15 685.95 C 614.54 680.59 613.14 674.94 611.04 669.98 C 608.80 667.88 605.07 669.34 602.62 667.47 C 598.32 664.21 595.05 659.48 589.89 657.45 C 586.12 657.10 582.15 658.17 578.60 656.29 C 575.50 654.54 571.68 655.14 569.19 657.65 C 569.82 655.35 569.41 653.04 568.36 650.94 C 563.16 649.68 558.61 645.14 552.97 646.59 C 551.49 649.74 548.67 651.93 546.98 654.95 C 547.19 654.26 547.60 652.89 547.80 652.20 C 545.86 652.23 543.94 652.28 542.02 652.31 C 544.35 651.89 546.71 651.58 549.00 650.94 C 550.78 649.04 551.14 646.32 551.77 643.91 L 550.16 643.83 C 548.00 643.14 546.13 641.84 544.31 640.54 C 544.21 639.91 544.00 638.65 543.90 638.02 C 544.34 636.86 544.71 635.68 545.10 634.51 C 541.08 632.52 540.57 628.03 539.79 624.12 C 539.52 621.37 536.93 619.94 535.18 618.17 C 534.88 617.90 534.28 617.36 533.98 617.10 C 532.16 601.96 529.46 586.94 527.32 571.85 C 526.91 570.26 527.53 568.77 528.94 567.98 Z" />
<path fill="#00bff3" stroke="#00bff3" stroke-width="0.09375" opacity="1.00" d=" M 276.93 480.00 C 278.91 480.91 280.88 481.85 282.83 482.85 C 282.78 486.25 283.02 489.65 283.41 493.04 C 282.87 493.83 282.33 494.64 281.80 495.45 C 282.35 495.35 283.46 495.13 284.01 495.02 C 284.89 496.53 285.76 498.04 286.64 499.56 C 284.84 500.96 283.03 502.35 281.30 503.86 C 280.46 500.23 277.66 496.19 279.36 492.53 C 279.25 492.33 279.02 491.92 278.90 491.72 C 278.41 491.78 277.43 491.91 276.95 491.97 C 274.05 488.41 276.01 483.91 276.93 480.00 Z" />
<path fill="#00acda" stroke="#00acda" stroke-width="0.09375" opacity="1.00" d=" M 143.20 480.74 C 160.69 504.67 178.89 528.16 199.07 549.90 C 205.43 557.53 212.97 564.07 219.48 571.57 C 221.67 574.02 224.24 576.09 226.65 578.32 C 251.69 603.34 279.40 625.70 309.00 645.14 C 272.21 686.85 235.33 728.47 198.55 770.18 C 178.03 743.51 161.58 713.71 150.14 682.06 C 126.80 617.89 124.41 546.36 143.20 480.74 Z" />
<path fill="#00bff3" stroke="#00bff3" stroke-width="0.09375" opacity="1.00" d=" M 381.76 488.16 C 387.93 487.59 394.48 486.35 400.49 488.33 C 400.91 488.75 401.75 489.59 402.18 490.01 C 404.20 490.99 406.11 489.19 408.01 488.64 C 408.68 489.78 409.35 490.92 410.07 492.04 C 400.63 490.73 391.18 489.56 381.76 488.16 Z" />
<path fill="#41cebd" stroke="#41cebd" stroke-width="0.09375" opacity="1.00" d=" M 269.17 498.24 C 269.67 498.74 269.67 498.74 269.17 498.24 Z" />
<path fill="#cecece" stroke="#cecece" stroke-width="0.09375" opacity="1.00" d=" M 309.00 645.14 C 328.18 623.52 347.26 601.80 366.46 580.19 C 372.19 582.88 377.88 585.71 383.80 587.99 C 379.57 597.43 375.24 607.41 375.54 617.96 C 375.51 623.04 378.65 628.38 383.94 629.31 C 394.91 631.32 405.52 626.45 415.36 622.23 C 418.65 629.23 421.95 636.23 425.28 643.22 C 420.03 647.20 414.81 651.24 409.84 655.57 C 381.00 678.08 352.55 701.07 323.87 723.78 C 291.27 749.69 258.69 775.65 226.08 801.55 C 168.97 847.02 111.83 892.44 54.72 937.90 C 49.95 941.57 45.47 945.65 40.37 948.89 C 64.98 921.66 89.00 893.91 113.41 866.52 C 141.77 834.39 170.15 802.27 198.55 770.18 C 235.33 728.47 272.21 686.85 309.00 645.14 Z" />
<path fill="#8acc67" stroke="#8acc67" stroke-width="0.09375" opacity="1.00" d=" M 512.50 612.23 C 516.32 612.62 520.16 612.21 523.99 612.36 C 527.67 612.92 531.28 614.48 533.98 617.10 C 534.28 617.36 534.88 617.90 535.18 618.17 C 534.86 626.92 537.13 635.47 538.34 644.08 L 537.93 644.65 C 536.44 647.13 534.54 649.33 532.07 650.89 C 534.39 651.29 536.75 651.02 538.90 650.02 C 541.35 663.29 542.98 676.70 545.23 690.01 C 546.70 696.40 540.54 700.93 538.97 706.71 C 555.97 705.63 572.88 703.40 589.67 700.56 C 594.63 699.64 599.54 698.26 604.62 698.09 C 602.66 701.44 601.76 705.32 599.58 708.54 C 598.64 708.61 597.70 708.65 596.77 708.66 C 595.24 716.99 598.52 725.52 595.79 733.73 C 594.56 736.75 594.70 740.01 594.21 743.16 C 592.58 747.32 589.73 751.06 589.60 755.72 C 588.58 756.29 587.57 756.86 586.57 757.44 C 586.37 758.11 585.98 759.45 585.79 760.11 C 582.43 760.43 579.06 760.62 575.69 760.48 C 574.27 761.75 572.86 763.03 571.45 764.31 C 566.03 765.30 561.79 769.42 558.87 773.86 C 557.91 777.96 560.14 781.89 560.12 785.98 C 559.87 789.44 556.33 791.35 555.54 794.64 C 554.52 798.09 553.62 801.73 551.03 804.40 C 551.66 802.25 552.40 800.14 553.14 798.03 C 552.57 798.12 551.43 798.30 550.86 798.38 C 550.04 800.27 549.21 802.16 548.38 804.05 C 548.68 808.73 546.18 812.89 544.02 816.84 C 543.01 818.54 542.04 820.69 539.87 821.10 C 534.43 822.07 528.97 820.10 524.19 817.70 C 521.76 816.30 522.42 813.49 523.01 811.27 C 522.88 810.52 522.76 809.78 522.65 809.06 C 522.50 810.96 522.31 812.87 522.06 814.78 C 522.56 816.34 523.09 817.89 523.63 819.46 C 525.50 820.54 527.49 821.48 529.16 822.90 C 529.71 825.84 530.55 828.72 533.79 829.63 C 533.30 832.98 532.54 836.70 530.05 839.15 C 524.83 841.90 518.69 842.40 512.88 842.29 C 513.44 843.19 514.00 844.11 514.56 845.05 C 514.46 847.45 515.49 849.82 515.31 852.19 C 511.75 854.47 507.63 852.17 504.03 851.31 C 504.84 853.42 505.67 855.54 506.49 857.67 C 507.30 858.14 508.11 858.62 508.92 859.11 C 508.74 859.88 508.56 860.67 508.39 861.47 C 508.74 861.77 509.45 862.39 509.80 862.69 C 507.69 865.63 509.56 869.08 509.09 872.35 C 506.37 873.10 502.71 874.40 503.47 878.02 C 504.94 881.73 509.28 882.67 512.73 883.68 C 513.51 884.84 513.54 886.36 513.92 887.71 C 512.11 889.53 510.46 891.50 509.00 893.61 C 499.69 895.30 490.25 895.93 480.88 897.03 C 480.61 895.19 480.31 893.36 480.01 891.54 C 480.68 891.64 482.01 891.84 482.68 891.94 C 481.02 889.00 479.37 885.97 479.17 882.54 C 479.04 882.49 478.79 882.40 478.66 882.35 C 477.03 881.86 475.40 881.44 473.76 881.02 C 473.50 881.51 472.96 882.50 472.70 883.00 C 472.61 882.18 472.54 881.37 472.50 880.57 C 472.63 880.20 472.90 879.47 473.03 879.11 C 473.66 878.20 474.30 877.32 474.96 876.45 C 476.32 877.34 477.67 878.25 479.04 879.14 C 478.73 877.85 478.45 876.60 478.07 875.35 C 478.20 875.05 478.44 874.45 478.57 874.15 C 479.01 872.62 479.42 871.10 479.83 869.57 C 479.12 869.46 477.71 869.24 477.01 869.13 C 476.11 865.10 475.82 860.97 474.99 856.95 C 473.93 856.13 472.53 856.33 471.30 856.20 C 472.00 859.03 472.62 861.90 472.98 864.80 C 472.38 864.67 471.19 864.41 470.60 864.28 C 469.77 861.55 469.35 858.72 469.35 855.88 C 467.83 853.02 466.91 849.87 467.48 846.63 C 468.28 842.15 463.99 839.03 463.34 834.85 C 464.49 827.30 465.74 819.66 465.31 812.00 C 465.08 807.46 462.76 803.42 461.62 799.10 C 462.95 796.39 462.27 793.59 460.98 791.05 C 462.33 781.62 461.77 772.03 460.43 762.65 C 461.38 754.10 460.28 745.40 457.65 737.24 C 454.01 733.54 450.25 729.66 445.41 727.55 C 439.38 724.70 433.16 721.26 429.47 715.50 C 428.40 708.06 422.67 702.69 419.84 695.95 C 428.79 698.49 437.89 700.50 447.03 702.25 C 449.29 702.76 451.62 702.55 453.91 702.25 C 460.48 715.88 467.28 729.39 474.06 742.92 C 478.93 739.21 483.43 735.03 487.91 730.87 C 498.79 719.09 509.91 706.92 516.12 691.91 C 519.89 683.44 518.68 673.93 518.09 664.97 C 517.11 647.31 514.65 629.77 512.50 612.23 M 458.45 720.96 C 458.41 721.61 458.33 722.91 458.30 723.56 C 460.19 724.69 462.07 725.86 463.99 726.97 C 463.09 724.22 461.12 722.06 458.45 720.96 M 481.43 886.96 C 481.57 890.28 484.41 885.41 481.43 886.96 Z" />
<path fill="#9ae373" stroke="#9ae373" stroke-width="0.09375" opacity="1.00" d=" M 535.18 618.17 C 536.93 619.94 539.52 621.37 539.79 624.12 C 540.57 628.03 541.08 632.52 545.10 634.51 C 544.71 635.68 544.34 636.86 543.90 638.02 C 542.06 640.05 540.00 641.89 538.34 644.08 C 537.13 635.47 534.86 626.92 535.18 618.17 Z" />
<path fill="#62d6b9" stroke="#62d6b9" stroke-width="0.09375" opacity="1.00" d=" M 538.34 644.08 C 540.00 641.89 542.06 640.05 543.90 638.02 C 544.00 638.65 544.21 639.91 544.31 640.54 C 546.13 641.84 548.00 643.14 550.16 643.83 C 547.53 643.78 544.91 643.94 542.29 644.11 C 541.59 645.59 540.89 647.07 540.11 648.52 C 539.38 647.22 538.65 645.93 537.93 644.65 L 538.34 644.08 Z" />
<path fill="#8acc67" stroke="#8acc67" stroke-width="0.09375" opacity="1.00" d=" M 409.84 655.57 C 414.81 651.24 420.03 647.20 425.28 643.22 C 427.82 648.60 430.39 653.97 432.98 659.33 C 424.27 664.02 416.78 670.61 408.59 676.13 C 407.07 675.43 405.56 674.72 404.05 674.01 C 404.32 673.48 404.85 672.42 405.12 671.88 C 404.44 669.95 403.69 668.02 403.31 666.01 C 403.87 661.57 409.99 660.35 409.84 655.57 Z" />
<path fill="#9ae373" stroke="#9ae373" stroke-width="0.09375" opacity="1.00" d=" M 542.29 644.11 C 544.91 643.94 547.53 643.78 550.16 643.83 L 551.77 643.91 C 551.14 646.32 550.78 649.04 549.00 650.94 C 546.71 651.58 544.35 651.89 542.02 652.31 C 543.94 652.28 545.86 652.23 547.80 652.20 C 547.60 652.89 547.19 654.26 546.98 654.95 C 548.67 651.93 551.49 649.74 552.97 646.59 C 558.61 645.14 563.16 649.68 568.36 650.94 C 569.41 653.04 569.82 655.35 569.19 657.65 C 571.68 655.14 575.50 654.54 578.60 656.29 C 582.15 658.17 586.12 657.10 589.89 657.45 C 595.05 659.48 598.32 664.21 602.62 667.47 C 605.07 669.34 608.80 667.88 611.04 669.98 C 613.14 674.94 614.54 680.59 613.15 685.95 C 612.15 689.88 609.53 693.12 607.13 696.30 C 606.30 696.90 605.44 697.47 604.62 698.09 C 599.54 698.26 594.63 699.64 589.67 700.56 C 572.88 703.40 555.97 705.63 538.97 706.71 C 540.54 700.93 546.70 696.40 545.23 690.01 C 542.98 676.70 541.35 663.29 538.90 650.02 C 539.20 649.65 539.81 648.90 540.11 648.52 C 540.89 647.07 541.59 645.59 542.29 644.11 Z" />
<path fill="#6ec781" stroke="#6ec781" stroke-width="0.09375" opacity="1.00" d=" M 532.07 650.89 C 534.54 649.33 536.44 647.13 537.93 644.65 C 538.65 645.93 539.38 647.22 540.11 648.52 C 539.81 648.90 539.20 649.65 538.90 650.02 C 536.75 651.02 534.39 651.29 532.07 650.89 Z" />
<path fill="#00acda" stroke="#00acda" stroke-width="0.09375" opacity="1.00" d=" M 323.87 723.78 C 352.55 701.07 381.00 678.08 409.84 655.57 C 409.99 660.35 403.87 661.57 403.31 666.01 C 403.69 668.02 404.44 669.95 405.12 671.88 C 404.85 672.42 404.32 673.48 404.05 674.01 C 405.56 674.72 407.07 675.43 408.59 676.13 L 408.76 676.37 C 403.49 679.71 398.33 683.23 393.47 687.14 C 401.73 691.08 410.69 693.32 419.46 695.84 L 419.84 695.95 C 422.67 702.69 428.40 708.06 429.47 715.50 C 433.16 721.26 439.38 724.70 445.41 727.55 C 450.25 729.66 454.01 733.54 457.65 737.24 C 460.28 745.40 461.38 754.10 460.43 762.65 C 461.77 772.03 462.33 781.62 460.98 791.05 C 462.27 793.59 462.95 796.39 461.62 799.10 C 462.76 803.42 465.08 807.46 465.31 812.00 C 465.74 819.66 464.49 827.30 463.34 834.85 C 463.99 839.03 468.28 842.15 467.48 846.63 C 466.91 849.87 467.83 853.02 469.35 855.88 C 469.35 858.72 469.77 861.55 470.60 864.28 C 471.19 864.41 472.38 864.67 472.98 864.80 C 472.62 861.90 472.00 859.03 471.30 856.20 C 472.53 856.33 473.93 856.13 474.99 856.95 C 475.82 860.97 476.11 865.10 477.01 869.13 C 476.84 869.58 476.51 870.49 476.34 870.94 C 475.33 869.04 474.13 867.24 472.58 865.76 C 472.38 867.42 472.21 869.11 472.05 870.80 C 472.67 871.57 473.30 872.35 473.93 873.14 C 473.67 875.13 473.42 877.12 473.03 879.11 C 472.90 879.47 472.63 880.20 472.50 880.57 C 472.54 881.37 472.61 882.18 472.70 883.00 C 472.96 882.50 473.50 881.51 473.76 881.02 C 475.40 881.44 477.03 881.86 478.66 882.35 C 478.33 884.76 477.23 886.92 476.26 889.13 C 476.50 891.94 478.47 894.32 479.85 896.73 C 410.94 902.00 340.58 883.92 282.37 846.75 C 262.01 833.82 243.14 818.59 226.08 801.55 C 258.69 775.65 291.27 749.69 323.87 723.78 Z" />
<path fill="#9ae373" stroke="#9ae373" stroke-width="0.09375" opacity="1.00" d=" M 408.59 676.13 C 416.78 670.61 424.27 664.02 432.98 659.33 C 439.72 673.75 447.00 687.91 453.91 702.25 C 451.62 702.55 449.29 702.76 447.03 702.25 C 437.89 700.50 428.79 698.49 419.84 695.95 L 419.46 695.84 C 416.81 688.90 413.23 682.31 408.76 676.37 L 408.59 676.13 Z" />
<path fill="#00bff3" stroke="#00bff3" stroke-width="0.09375" opacity="1.00" d=" M 393.47 687.14 C 398.33 683.23 403.49 679.71 408.76 676.37 C 413.23 682.31 416.81 688.90 419.46 695.84 C 410.69 693.32 401.73 691.08 393.47 687.14 Z" />
<path fill="#00acda" stroke="#00acda" stroke-width="0.09375" opacity="1.00" d=" M 458.45 720.96 C 461.12 722.06 463.09 724.22 463.99 726.97 C 462.07 725.86 460.19 724.69 458.30 723.56 C 458.33 722.91 458.41 721.61 458.45 720.96 Z" />
<path fill="#69c483" stroke="#69c483" stroke-width="0.09375" opacity="1.00" d=" M 510.39 857.49 C 512.74 857.67 513.28 859.83 513.97 861.65 C 513.13 861.82 511.46 862.15 510.62 862.32 C 510.48 860.71 510.41 859.10 510.39 857.49 Z" />
<path fill="#30b7b2" stroke="#30b7b2" stroke-width="0.09375" opacity="1.00" d=" M 472.58 865.76 C 474.13 867.24 475.33 869.04 476.34 870.94 C 476.51 870.49 476.84 869.58 477.01 869.13 C 477.71 869.24 479.12 869.46 479.83 869.57 C 479.42 871.10 479.01 872.62 478.57 874.15 C 478.44 873.13 477.65 871.33 476.36 872.04 C 475.57 873.39 477.30 874.45 478.07 875.35 C 478.45 876.60 478.73 877.85 479.04 879.14 C 477.67 878.25 476.32 877.34 474.96 876.45 C 474.30 877.32 473.66 878.20 473.03 879.11 C 473.42 877.12 473.67 875.13 473.93 873.14 C 473.30 872.35 472.67 871.57 472.05 870.80 C 472.21 869.11 472.38 867.42 472.58 865.76 Z" />
<path fill="#1eb3c1" stroke="#1eb3c1" stroke-width="0.09375" opacity="1.00" d=" M 476.36 872.04 C 477.65 871.33 478.44 873.13 478.57 874.15 C 478.44 874.45 478.20 875.05 478.07 875.35 C 477.30 874.45 475.57 873.39 476.36 872.04 Z" />
<path fill="#56c093" stroke="#56c093" stroke-width="0.09375" opacity="1.00" d=" M 478.66 882.35 C 478.79 882.40 479.04 882.49 479.17 882.54 C 479.37 885.97 481.02 889.00 482.68 891.94 C 482.01 891.84 480.68 891.64 480.01 891.54 C 480.31 893.36 480.61 895.19 480.88 897.03 C 480.62 896.96 480.11 896.80 479.85 896.73 C 478.47 894.32 476.50 891.94 476.26 889.13 C 477.23 886.92 478.33 884.76 478.66 882.35 Z" />
<path fill="#37b8ad" stroke="#37b8ad" stroke-width="0.09375" opacity="1.00" d=" M 481.43 886.96 C 484.41 885.41 481.57 890.28 481.43 886.96 Z" />
</svg>
